<svg xmlns="http://www.w3.org/2000/svg" viewBox="0 0 1024 1024" role="img" aria-labelledby="title">
  <title id="title">RIVAI logo</title>
  <defs>
    <radialGradient id="bg" cx="50%" cy="42%" r="68%">
      <stop offset="0" stop-color="#8b8b88"/>
      <stop offset="0.55" stop-color="#747472"/>
      <stop offset="1" stop-color="#454545"/>
    </radialGradient>
    <linearGradient id="gold" x1="0%" x2="100%" y1="0%" y2="100%">
      <stop offset="0" stop-color="#fff100"/>
      <stop offset="0.62" stop-color="#ffe000"/>
      <stop offset="1" stop-color="#c79d00"/>
    </linearGradient>
    <filter id="shadow" x="-18%" y="-18%" width="136%" height="136%">
      <feDropShadow dx="0" dy="16" stdDeviation="15" flood-color="#000000" flood-opacity="0.45"/>
    </filter>
  </defs>
  <rect width="1024" height="1024" fill="url(#bg)"/>
  <g filter="url(#shadow)">
    <path
      d="M86 344 501 570 461 588 208 580 145 424 350 535 178 395 91 358C78 353 75 337 86 344Z"
      fill="#020202"
    />
    <path
      d="M938 344 523 570 563 588 816 580 879 424 674 535 846 395 933 358C946 353 949 337 938 344Z"
      fill="#020202"
    />
    <path d="M170 397 435 523 172 345C153 332 147 345 170 397Z" fill="#030303"/>
    <path d="M854 397 589 523 852 345C871 332 877 345 854 397Z" fill="#030303"/>
    <path
      d="M206 444 263 475C267 518 300 536 354 530L334 506 461 570 238 556Z"
      fill="url(#gold)"
    />
    <path
      d="M818 444 761 475C757 518 724 536 670 530L690 506 563 570 786 556Z"
      fill="url(#gold)"
    />
    <path d="M226 456 263 476C267 515 297 529 339 525L323 504 450 566 251 545Z" fill="#fff018" opacity="0.78"/>
    <path d="M798 456 761 476C757 515 727 529 685 525L701 504 574 566 773 545Z" fill="#fff018" opacity="0.78"/>
    <path d="M111 348 401 514 178 395Z" fill="#191919" opacity="0.72"/>
    <path d="M913 348 623 514 846 395Z" fill="#191919" opacity="0.72"/>
  </g>
</svg>
